<svg width="19" height="19" viewBox="0 0 19 19" fill="none" xmlns="http://www.w3.org/2000/svg">
<rect width="19" height="19" fill="#DBCDCD"/>
<path d="M-380.5 -762C-380.5 -763.105 -379.605 -764 -378.5 -764H5720.5C5721.6 -764 5722.5 -763.105 5722.5 -762V1210C5722.5 1211.1 5721.6 1212 5720.5 1212H-378.5C-379.605 1212 -380.5 1211.1 -380.5 1210V-762Z" fill="white"/>
<path d="M-378.5 -764V-763H5720.5V-764V-765H-378.5V-764ZM5722.5 -762H5721.5V1210H5722.5H5723.5V-762H5722.5ZM5720.5 1212V1211H-378.5V1212V1213H5720.5V1212ZM-380.5 1210H-379.5V-762H-380.5H-381.5V1210H-380.5ZM-378.5 1212V1211C-379.052 1211 -379.5 1210.55 -379.5 1210H-380.5H-381.5C-381.5 1211.66 -380.157 1213 -378.5 1213V1212ZM5722.5 1210H5721.5C5721.5 1210.55 5721.05 1211 5720.5 1211V1212V1213C5722.16 1213 5723.5 1211.66 5723.5 1210H5722.5ZM5720.5 -764V-763C5721.05 -763 5721.5 -762.552 5721.5 -762H5722.5H5723.5C5723.5 -763.657 5722.16 -765 5720.5 -765V-764ZM-378.5 -764V-765C-380.157 -765 -381.5 -763.657 -381.5 -762H-380.5H-379.5C-379.5 -762.552 -379.052 -763 -378.5 -763V-764Z" fill="black" fill-opacity="0.1"/>
<rect x="-281" y="-228.5" width="1981" height="405" rx="4.5" stroke="#736BEA" stroke-dasharray="10 5"/>
<g clip-path="url(#clip0_125_595)">
<rect width="1920" height="334" transform="translate(-251 -199)" fill="#F5F5F5"/>
<mask id="path-4-inside-1_125_595" fill="white">
<path d="M-251 -199H1669V135H-251V-199Z"/>
</mask>
<path d="M-251 -199V-198H1669V-199V-200H-251V-199Z" fill="#D1D1D1" mask="url(#path-4-inside-1_125_595)"/>
<path d="M9.84961 0.394531C13.4447 0.394531 15.2424 0.394336 16.5371 1.25098C17.1153 1.63353 17.6106 2.12887 17.9932 2.70703C18.8498 4.00176 18.8496 5.79946 18.8496 9.39453C18.8496 12.9896 18.8498 14.7873 17.9932 16.082C17.6106 16.6602 17.1153 17.1555 16.5371 17.5381C15.2424 18.3947 13.4447 18.3945 9.84961 18.3945C6.25454 18.3945 4.45684 18.3947 3.16211 17.5381C2.58395 17.1555 2.08861 16.6602 1.70605 16.082C0.849414 14.7873 0.849609 12.9896 0.849609 9.39453C0.849609 5.79946 0.849414 4.00176 1.70605 2.70703C2.08861 2.12887 2.58395 1.63353 3.16211 1.25098C4.45684 0.394336 6.25454 0.394531 9.84961 0.394531ZM9.84961 4.73438C7.27643 4.73438 5.19065 6.82042 5.19043 9.39355C5.19043 11.9669 7.27629 14.0537 9.84961 14.0537C12.4229 14.0536 14.5088 11.9668 14.5088 9.39355C14.5086 6.82048 12.4227 4.73446 9.84961 4.73438ZM9.84961 6.31055C11.5521 6.31063 12.9324 7.6911 12.9326 9.39355C12.9326 11.0962 11.5522 12.4765 9.84961 12.4766C8.14691 12.4766 6.7666 11.0963 6.7666 9.39355C6.76682 7.69105 8.14705 6.31055 9.84961 6.31055ZM14.6934 3.40625C14.0888 3.40625 13.5978 3.89645 13.5977 4.50098C13.5977 5.10563 14.0887 5.5957 14.6934 5.5957C15.2978 5.59545 15.7881 5.10547 15.7881 4.50098C15.7879 3.89661 15.2977 3.40651 14.6934 3.40625Z" fill="#736BEA"/>
</g>
<defs>
<clipPath id="clip0_125_595">
<rect width="1920" height="334" fill="white" transform="translate(-251 -199)"/>
</clipPath>
</defs>
</svg>
